<?xml version="1.0" encoding="UTF-8"?>
<svg width="32px" height="32px" viewBox="0 0 32 32" version="1.1" xmlns="http://www.w3.org/2000/svg" xmlns:xlink="http://www.w3.org/1999/xlink">
    <!-- Generator: Sketch 47.1 (45422) - http://www.bohemiancoding.com/sketch -->
    <title>github</title>
    <desc>Created with Sketch.</desc>
    <defs></defs>
    <g id="Welcome" stroke="none" stroke-width="1" fill="none" fill-rule="evenodd">
        <g id="Desktop" transform="translate(-742.000000, -3551.000000)" fill="#171717">
            <g id="CONTACT" transform="translate(0.000000, 3310.000000)">
                <g id="contact-links" transform="translate(526.000000, 241.000000)">
                    <path d="M243.313708,4.6862915 C240.418278,1.790861 236.418278,-8.11624501e-16 232,0 L232,0 L232,0 C223.163444,1.623249e-15 216,7.163444 216,16 L216,16 L216,16 C216,24.836556 223.163444,32 232,32 C240.836556,32 248,24.836556 248,16 L248,16 C248,11.581722 246.209139,7.581722 243.313708,4.6862915 C240.417686,1.79068674 236.417686,0 232,0 C223.164628,0 216,7.16274694 216,16 C216,23.0686736 220.585136,29.0649106 226.942615,31.1815616 C227.742239,31.3283161 228.035748,30.8353716 228.035748,30.4101599 C228.035748,30.0301035 228.022578,29.0253998 228.01317,27.6895579 C223.5635,28.6547507 222.624647,25.5446849 222.624647,25.5446849 C221.896519,23.6970837 220.84666,23.2041392 220.84666,23.2041392 C219.394167,22.2126058 220.957667,22.2314205 220.957667,22.2314205 C222.562559,22.3443086 223.409219,23.8795861 223.409219,23.8795861 C224.835372,26.3254939 227.15334,25.6180621 228.06397,25.2097836 C228.208843,24.1768579 228.622766,23.4713076 229.079962,23.070555 C225.527752,22.667921 221.791157,21.2944497 221.791157,15.1646284 C221.791157,13.4167451 222.415804,11.9887112 223.439323,10.869238 C223.273754,10.4647225 222.724365,8.83725306 223.595484,6.63405456 C223.595484,6.63405456 224.938852,6.20507996 227.996237,8.27469426 C229.271872,7.92097836 230.639699,7.74223895 232.001881,7.73659454 C233.360301,7.74223895 234.728128,7.92097836 236.007526,8.27469426 C239.061148,6.20507996 240.402634,6.63405456 240.402634,6.63405456 C241.275635,8.83725306 240.726246,10.4647225 240.562559,10.869238 C241.587959,11.9887112 242.206961,13.4167451 242.206961,15.1646284 C242.206961,21.3095014 238.466604,22.6622766 234.901223,23.0592662 C235.476952,23.5522107 235.98683,24.5286924 235.98683,26.0206961 C235.98683,28.1599247 235.966134,29.8871119 235.966134,30.4101599 C235.966134,30.8391345 236.25588,31.335842 237.066792,31.1796802 C243.420508,29.0592662 248,23.0667921 248,16 C248,11.5813735 246.208843,7.58137347 243.313264,4.6860301 Z" id="Combined-Shape"></path>
                </g>
            </g>
        </g>
    </g>
</svg>