<?xml version="1.0" encoding="UTF-8"?>
<svg width="32px" height="32px" viewBox="0 0 32 32" version="1.1" xmlns="http://www.w3.org/2000/svg" xmlns:xlink="http://www.w3.org/1999/xlink">
    <!-- Generator: Sketch 48.2 (47327) - http://www.bohemiancoding.com/sketch -->
    <title>github</title>
    <desc>Created with Sketch.</desc>
    <defs></defs>
    <g id="Desktop" stroke="none" stroke-width="1" fill="none" fill-rule="evenodd" transform="translate(-742.000000, -3551.000000)">
        <g id="CONTACT" transform="translate(0.000000, 3320.000000)" fill="#02114B">
            <g id="contact-links" transform="translate(526.000000, 231.000000)">
                <g id="Group-2" transform="translate(216.000000, 0.000000)">
                    <path d="M20.244884,30.3735315 C20.244884,29.8371756 20.2653556,28.0704766 20.2653556,25.8810392 C20.2653556,24.3528343 19.7412827,23.3548439 19.1537478,22.8481718 C22.8017867,22.4428342 26.6309992,21.0579305 26.6309992,14.7670082 C26.6309992,12.9788141 25.9974033,11.5171419 24.9472103,10.371756 C25.1150774,9.95822971 25.6780463,8.29286516 24.784461,6.03791856 C24.784461,6.03791856 23.4118404,5.59777919 20.2848037,7.71658966 C18.9766685,7.35424236 17.5764112,7.17204513 16.185366,7.16590365 C14.7922737,7.17204513 13.3909928,7.35424236 12.0849048,7.71658966 C8.95684453,5.59777919 7.5811531,6.03791856 7.5811531,6.03791856 C6.69063856,8.29286516 7.25258394,9.95822971 7.42045105,10.371756 C6.37332878,11.5171419 5.7346149,12.9788141 5.7346149,14.7670082 C5.7346149,21.0425768 9.55870953,22.4479521 13.1944655,22.8604548 C12.7266894,23.2709103 12.3039509,23.9925342 12.1555318,25.0509158 C11.2220269,25.46956 8.85039222,26.1922075 7.38872007,23.6895545 C7.38872007,23.6895545 6.52379503,22.1183593 4.87992565,22.0016712 C4.87992565,22.0016712 3.2810938,21.9811996 4.76733186,22.9976145 C4.76733186,22.9976145 5.84106721,23.5012158 6.5862334,25.3938151 C6.5862334,25.3938151 7.54737496,28.5781723 12.1033292,27.5883705 C12.1104943,28.9548497 12.1248244,29.9845711 12.1248244,30.3735315 C12.1248244,30.8003643 11.8341277,31.2906591 11.0480183,31.1668059 C12.6652746,31.7011147 14.3879597,32 16.1833189,32 C17.9786781,32 19.7013631,31.7011147 21.3186194,31.1668059 C20.5304628,31.2927063 20.244884,30.8013879 20.244884,30.3735315" id="Fill-1"></path>
                </g>
            </g>
        </g>
    </g>
</svg>