<?xml version="1.0" encoding="UTF-8"?>
<svg width="34px" height="40px" viewBox="0 0 34 40" version="1.1" xmlns="http://www.w3.org/2000/svg" xmlns:xlink="http://www.w3.org/1999/xlink">
    <!-- Generator: Sketch 47.1 (45422) - http://www.bohemiancoding.com/sketch -->
    <title>logo</title>
    <desc>Created with Sketch.</desc>
    <defs></defs>
    <g id="Welcome" stroke="none" stroke-width="1" fill="none" fill-rule="evenodd">
        <g id="Desktop" transform="translate(-40.000000, -20.000000)" fill="#DEDC00">
            <g id="MAIN">
                <g id="header-h80px">
                    <g id="logo" transform="translate(40.000000, 20.000000)">
                        <polygon id="Fill-1" points="0 22.3076923 0 39.2307692 8.46153846 39.2307692 3.30861423 22.3076923"></polygon>
                        <path d="M6.96696268,15.843452 C7.26152475,15.3321651 7.46460168,14.7019819 7.57518812,13.9529026 C7.68577456,13.2044874 7.74106778,12.3363458 7.74106778,11.3499722 C7.74106778,10.3635985 7.68577456,9.49612112 7.57518812,8.74704176 C7.46460168,7.99862662 7.24342879,7.34967912 6.91166946,6.80169377 C6.21095354,5.77928596 4.88391622,5.2673348 2.9305575,5.2673348 L1.67555218e-05,5.2673348 L1.67555218e-05,17.4326095 L3.20702361,17.4326095 C4.2023016,17.4326095 4.99467022,17.2956132 5.58463214,17.0216205 C6.17392384,16.7476278 6.63520335,16.3554032 6.96696268,15.843452" id="Fill-2"></path>
                        <path d="M14.997834,0.00664224664 L15.0412308,0.00664224664 C15.0407281,0.00448351648 15.0402254,0.00232478632 15.0397228,0 L0.0837440975,0 L0.0837440975,0.00664224664 L3.42814623,0.00664224664 C10.0633328,0.00664224664 13.3810937,3.82460562 13.3810937,11.459536 C13.3810937,13.7610745 13.0215202,15.7158877 12.3027083,17.3229792 C11.5838964,18.9310672 10.3208652,20.2274676 8.51529018,21.2136752 L14.597377,39.023199 L21.5224341,39.023199 L21.5224341,5.26730159 L14.997834,5.26730159 L14.997834,0.00664224664 Z" id="Fill-4"></path>
                        <polygon id="Fill-6" points="33.6869429 5.2673348 27.1625103 5.2673348 27.1625103 39.0232322 33.7623427 39.0232322"></polygon>
                    </g>
                </g>
            </g>
        </g>
    </g>
</svg>