<?xml version="1.0" encoding="UTF-8"?>
<svg width="18px" height="13px" viewBox="0 0 18 13" version="1.1" xmlns="http://www.w3.org/2000/svg" xmlns:xlink="http://www.w3.org/1999/xlink">
    <!-- Generator: Sketch 48.2 (47327) - http://www.bohemiancoding.com/sketch -->
    <title>mail</title>
    <desc>Created with Sketch.</desc>
    <defs>
        <polygon id="path-1" points="9.00001406 13 18 13 18 0 9.00001406 0 2.8125e-05 0 2.8125e-05 13"></polygon>
    </defs>
    <g id="Desktop" stroke="none" stroke-width="1" fill="none" fill-rule="evenodd" transform="translate(-533.000000, -3561.000000)">
        <g id="CONTACT" transform="translate(0.000000, 3320.000000)">
            <g id="contact-links" transform="translate(526.000000, 231.000000)">
                <g id="mail" transform="translate(7.000000, 10.000000)">
                    <polygon id="Fill-1" fill="#02114B" points="15.8823529 3.10770957 15.8823529 3.76688114 9.0166965 9 2.11764706 3.73734344 2.11764706 3 9.0166965 6.67531427"></polygon>
                    <mask id="mask-2" fill="white">
                        <use xlink:href="#path-1"></use>
                    </mask>
                    <g id="Clip-3"></g>
                    <path d="M1.84165312,11.493625 C1.68696562,11.493625 1.56040312,11.37175 1.56040312,11.2227917 L1.56040312,1.77720833 C1.56040312,1.62825 1.68696562,1.506375 1.84165312,1.506375 L16.1584031,1.506375 C16.3130906,1.506375 16.4396531,1.62825 16.4396531,1.77720833 L16.4396531,11.2227917 C16.4396531,11.37175 16.3130906,11.493625 16.1584031,11.493625 L1.84165312,11.493625 Z M0.281278125,0 C0.126590625,0 2.8125e-05,0.121875 2.8125e-05,0.270833333 L2.8125e-05,12.7291667 C2.8125e-05,12.878125 0.126590625,13 0.281278125,13 L17.7187781,13 C17.8734656,13 18.0000281,12.878125 18.0000281,12.7291667 L18.0000281,0.270833333 C18.0000281,0.121875 17.8734656,0 17.7187781,0 L0.281278125,0 Z" id="Fill-2" fill="#02114B" mask="url(#mask-2)"></path>
                </g>
            </g>
        </g>
    </g>
</svg>